<svg xmlns="http://www.w3.org/2000/svg" width="35" height="35" viewBox="0 0 35 35">
  <g id="Raggruppa_1243" data-name="Raggruppa 1243" transform="translate(-1413 -41)">
    <g id="Raggruppa_1239" data-name="Raggruppa 1239" transform="translate(-52)">
      <circle id="Ellisse_8" data-name="Ellisse 8" cx="17.5" cy="17.5" r="17.5" transform="translate(1465 41)" fill="#00cbbf"/>
    </g>
    <path id="Icon_awesome-instagram" data-name="Icon awesome-instagram" d="M10.671,7.437a5.472,5.472,0,1,0,5.472,5.472A5.464,5.464,0,0,0,10.671,7.437Zm0,9.03a3.558,3.558,0,1,1,3.558-3.558,3.564,3.564,0,0,1-3.558,3.558Zm6.972-9.254a1.276,1.276,0,1,1-1.276-1.276A1.273,1.273,0,0,1,17.644,7.213Zm3.624,1.3a6.316,6.316,0,0,0-1.724-4.472,6.358,6.358,0,0,0-4.472-1.724c-1.762-.1-7.044-.1-8.806,0A6.349,6.349,0,0,0,1.794,4.032,6.337,6.337,0,0,0,.07,8.5c-.1,1.762-.1,7.044,0,8.806a6.316,6.316,0,0,0,1.724,4.472,6.366,6.366,0,0,0,4.472,1.724c1.762.1,7.044.1,8.806,0a6.316,6.316,0,0,0,4.472-1.724,6.358,6.358,0,0,0,1.724-4.472c.1-1.762.1-7.039,0-8.8ZM18.991,19.2a3.6,3.6,0,0,1-2.029,2.029c-1.4.557-4.739.429-6.291.429s-4.891.124-6.291-.429A3.6,3.6,0,0,1,2.351,19.2c-.557-1.4-.429-4.739-.429-6.291S1.8,8.018,2.351,6.618A3.6,3.6,0,0,1,4.38,4.589c1.4-.557,4.739-.429,6.291-.429s4.891-.124,6.291.429a3.6,3.6,0,0,1,2.029,2.029c.557,1.4.429,4.739.429,6.291S19.549,17.8,18.991,19.2Z" transform="translate(1420.005 45.762)"/>
  </g>
</svg>
