<svg xmlns="http://www.w3.org/2000/svg" width="35" height="35" viewBox="0 0 35 35">
  <g id="Raggruppa_1242" data-name="Raggruppa 1242" transform="translate(-1465 -41)">
    <circle id="Ellisse_8" data-name="Ellisse 8" cx="17.5" cy="17.5" r="17.5" transform="translate(1465 41)" fill="#00cbbf"/>
    <path id="Icon_awesome-linkedin-in" data-name="Icon awesome-linkedin-in" d="M4.426,19.775H.327V6.573h4.1Zm-2.052-15a2.386,2.386,0,1,1,2.374-2.4A2.394,2.394,0,0,1,2.374,4.772Zm17.4,15H15.679V13.348c0-1.532-.031-3.5-2.132-3.5-2.132,0-2.458,1.664-2.458,3.386v6.537h-4.1V6.573h3.932v1.8h.057a4.308,4.308,0,0,1,3.879-2.132c4.149,0,4.912,2.732,4.912,6.281v7.252Z" transform="translate(1473 48.999)"/>
  </g>
</svg>
